<svg xmlns="http://www.w3.org/2000/svg" version="1.1" xmlns:xlink="http://www.w3.org/1999/xlink" xmlns:svgjs="http://svgjs.dev/svgjs" width="1500" height="1500" viewBox="0 0 1500 1500"><rect width="1500" height="1500" fill="#000000"></rect><g transform="matrix(0.6666666666666666,0,0,0.6666666666666666,249.39393939393938,438.5856950067477)"><svg viewBox="0 0 396 247" data-background-color="#ffffff" preserveAspectRatio="xMidYMid meet" height="935" width="1500" xmlns="http://www.w3.org/2000/svg" xmlns:xlink="http://www.w3.org/1999/xlink"><g id="tight-bounds" transform="matrix(1,0,0,1,0.2400000000000091,-0.09999999999999432)"><svg viewBox="0 0 395.52 247.2" height="247.2" width="395.52"><g><svg></svg></g><g><svg viewBox="0 0 395.52 247.2" height="247.2" width="395.52"><g transform="matrix(1,0,0,1,76.55111364976406,47.215199999999996)"><svg viewBox="0 0 242.41777270047186 152.7696" height="152.7696" width="242.41777270047186"><g><svg viewBox="0 0 242.41777270047186 152.7696" height="152.7696" width="242.41777270047186"><g><svg viewBox="0 0 244.43135999999998 154.03854543616683" height="152.7696" width="242.41777270047186"><g><svg viewBox="0 0 244.43135999999998 154.03854543616683" height="154.03854543616683" width="244.43135999999998"><g id="textblocktransform"><svg viewBox="0 0 244.43135999999998 154.03854543616683" height="154.03854543616683" width="244.43135999999998" id="textblock"><g><svg viewBox="0 0 244.43135999999998 83.08103089418493" height="83.08103089418493" width="244.43135999999998"><g transform="matrix(1,0,0,1,0,0)"><svg width="244.43135999999998" viewBox="2.6 -35.55 104.89 35.65" height="83.08103089418493" data-palette-color="#29475f"><path d="M32.55-6.9L35.2-4.3Q35.85-3.65 35.85-2.9L35.85-2.9Q35.85-2.1 35.25-1.5 34.65-0.9 33.85-0.9L33.85-0.9Q33-0.9 32.45-1.45L32.45-1.45 29.7-4.2Q27.4-2.5 24.58-1.58 21.75-0.65 18.65-0.65L18.65-0.65Q13.85-0.65 10.2-2.8 6.55-4.95 4.58-8.78 2.6-12.6 2.6-17.5L2.6-17.5Q2.6-22.95 4.95-27.05 7.3-31.15 11.13-33.35 14.95-35.55 19.25-35.55L19.25-35.55Q23.65-35.55 27.58-33.3 31.5-31.05 33.93-27.03 36.35-23 36.35-17.95L36.35-17.95Q36.35-11.55 32.55-6.9L32.55-6.9ZM18.7-4.2Q21-4.2 23.1-4.9 25.2-5.6 26.95-6.9L26.95-6.9 23.25-10.55Q22.7-11.1 22.7-11.65L22.7-11.65Q22.7-12.4 23.48-13.08 24.25-13.75 25-13.75L25-13.75Q25.5-13.75 25.85-13.45L25.85-13.45 29.75-9.6Q32.5-13.3 32.5-18L32.5-18Q32.5-21.9 30.65-25.1 28.8-28.3 25.8-30.15 22.8-32 19.45-32L19.45-32Q16.2-32 13.2-30.25 10.2-28.5 8.33-25.23 6.45-21.95 6.45-17.6L6.45-17.6Q6.45-13.7 8-10.65 9.55-7.6 12.35-5.9 15.15-4.2 18.7-4.2L18.7-4.2ZM62-5.5Q62-4.55 62.22-3.9 62.45-3.25 62.8-2.68 63.15-2.1 63.15-1.9L63.15-1.9Q63.15-1.35 62.6-0.85 62.05-0.35 61.55-0.35L61.55-0.35Q60.55-0.35 59.77-1.6 59-2.85 59-4L59-4 59-4.7Q57.95-2.4 55.77-1.2 53.6 0 50.8 0L50.8 0Q46.55 0 44.45-2.9 42.35-5.8 42.35-11.35L42.35-11.35 42.35-23.7Q42.35-24.35 42.87-24.75 43.4-25.15 44.2-25.15L44.2-25.15Q45.05-25.15 45.6-24.75 46.15-24.35 46.15-23.7L46.15-23.7 46.15-11.25Q46.15-7.05 47.35-5.1 48.55-3.15 51.2-3.15L51.2-3.15Q57.95-3.15 57.95-15.4L57.95-15.4 57.95-23.75Q57.95-24.55 58.45-25 58.95-25.45 59.8-25.45L59.8-25.45Q60.7-25.45 61.25-25 61.8-24.55 61.8-23.75L61.8-23.75 62-5.5ZM74.8-28.3Q73.5-28.3 72.6-29.18 71.7-30.05 71.7-31.4L71.7-31.4Q71.7-32.75 72.6-33.63 73.5-34.5 74.9-34.5L74.9-34.5Q76.25-34.5 77.12-33.65 78-32.8 78-31.45L78-31.45Q78-30.1 77.07-29.2 76.15-28.3 74.8-28.3L74.8-28.3ZM74.05-0.3Q73.15-0.3 72.62-0.75 72.1-1.2 72.1-1.95L72.1-1.95 72.6-23.2Q72.6-24.05 73.12-24.5 73.65-24.95 74.55-24.95L74.55-24.95Q75.45-24.95 75.97-24.5 76.5-24.05 76.5-23.15L76.5-23.15 76-1.95Q75.95-1.15 75.42-0.73 74.9-0.3 74.05-0.3L74.05-0.3ZM104.29 0.1Q100.14-0.35 96.64-0.35L96.64-0.35Q94.74-0.35 89.74-0.1L89.74-0.1 86.59 0Q85.19 0 84.47-0.35 83.74-0.7 83.74-1.5L83.74-1.5Q83.74-2.4 84.59-3.25L84.59-3.25Q94.34-13.65 102.39-21.9L102.39-21.9Q101.54-21.9 99.54-21.7L99.54-21.7Q96.04-21.45 94.39-21.45L94.39-21.45Q92.04-21.45 89.94-21.65 87.84-21.85 86.89-22.1L86.89-22.1Q85.44-22.5 85.44-23.7L85.44-23.7Q85.44-24.4 85.84-24.9 86.24-25.4 87.04-25.3L87.04-25.3Q91.99-24.65 95.64-24.65L95.64-24.65Q97.54-24.65 101.39-25L101.39-25Q103.89-25.2 104.74-25.2L104.74-25.2Q106.39-25.2 106.94-24.83 107.49-24.45 107.49-23.65L107.49-23.65Q107.49-22.5 106.59-21.55L106.59-21.55 101.19-16Q93.99-8.75 88.94-3.25L88.94-3.25 91.19-3.35Q94.59-3.55 97.04-3.55L97.04-3.55Q100.79-3.55 104.69-3.1L104.69-3.1Q105.29-3.05 105.62-2.6 105.94-2.15 105.94-1.5L105.94-1.5Q105.94-0.75 105.49-0.3 105.04 0.15 104.29 0.1L104.29 0.1Z" opacity="1" transform="matrix(1,0,0,1,0,0)" fill="#ffffff" class="wordmark-text-0" data-fill-palette-color="primary" id="text-0"></path></svg></g></svg></g><g transform="matrix(1,0,0,1,0,102.69446834356054)"><svg viewBox="0 0 244.43135999999998 51.34407709260629" height="51.34407709260629" width="244.43135999999998"><g transform="matrix(1,0,0,1,0,0)"><svg width="244.43135999999998" viewBox="1.2 -31.8 200.42000000000002 42.1" height="51.34407709260629" data-palette-color="#9040e0"><path d="M4.85 4.1L4.85 4.1Q4.3 4.1 4.3 2.2L4.3 2.2Q4.3 1.5 4.4 0.95L4.4 0.95Q1.2-1.5 1.2-6.25L1.2-6.25Q1.2-9.85 3.25-14.4L3.25-14.4Q5.85-20.15 13.4-25.6L13.4-25.6Q22.1-31.8 31.4-31.8L31.4-31.8Q36.4-31.8 39-29.85 41.6-27.9 41.6-25L41.6-25Q41.6-23.2 40.2-20.55L40.2-20.55Q40.6-19.2 40.6-17.8L40.6-17.8Q40.6-11.55 34.2-5.85L34.2-5.85Q28.5-0.75 22.15 1.35L22.15 1.35Q32.3 8.65 35.85 8.65L35.85 8.65Q36.65 8.65 37.3 8.22 37.95 7.8 37.95 7.23 37.95 6.65 37.6 6.15L37.6 6.15Q37.45 5.8 37.45 5.6L37.45 5.6Q37.45 4.9 38.33 5.85 39.2 6.8 39.2 7.85 39.2 8.9 38.2 9.6 37.2 10.3 35.6 10.3L35.6 10.3Q30.4 10.3 19.05 2.25L19.05 2.25Q15.95 2.95 12.1 2.95 8.25 2.95 5.9 1.85L5.9 1.85Q5.2 4.1 4.85 4.1ZM39.55-22.05L39.55-22.05Q40.05-23.25 40.05-24.73 40.05-26.2 38.95-27.75L38.95-27.75Q36.8-30.75 31.35-30.75L31.35-30.75Q23.8-30.75 17.1-26.08 10.4-21.4 6.65-14.3L6.65-14.3Q3.9-9.15 3.9-5.05L3.9-5.05Q3.9-2.45 5-0.85L5-0.85Q5.55-2.2 6.35-3.3L6.35-3.3Q7.6-5.1 9.6-5.1 11.6-5.1 13.65-3.95L13.65-3.95Q16.35-2.5 20.55 0.25L20.55 0.25Q25.9-1.75 30.7-6L30.7-6Q37.05-11.6 37.6-16.85L37.6-16.85Q35-14 28.6-10.05L28.6-10.05 28.2-9.95Q28.15-9.95 28.15-10L28.15-10Q28.15-10.2 29.5-11.35L29.5-11.35 32.3-13.65Q35.9-16.8 37.55-18.8L37.55-18.8Q37.2-21.6 35.02-23.48 32.85-25.35 30.05-26.2L30.05-26.2Q28.65-26.55 25.73-26.65 22.8-26.75 22.8-26.85 22.8-26.95 22.9-27.05L22.9-27.05Q25.2-27.8 27.33-27.8 29.45-27.8 32.2-27.15L32.2-27.15Q37.45-25.9 39.55-22.05ZM17.5 1.2L17.5 1.2Q11.75-2.3 9.65-2.3 7.55-2.3 6.8-0.7L6.8-0.7 6.3 0.5Q8 1.85 10.55 1.9L10.55 1.9Q11.05 1.9 11.55 1.9L11.55 1.9Q14.45 1.9 17.5 1.2ZM90.56 0.3L90.56 0.3Q90.31 0.35 89.48 0.35 88.66 0.35 87.83-0.3 87.01-0.95 87.01-1.98 87.01-3 87.38-4.25 87.76-5.5 87.91-6.15L87.91-6.15Q82.16 0.55 78.91 0.55L78.91 0.55Q76.86 0.55 76.66-2L76.66-2Q76.66-2.2 76.66-2.35L76.66-2.35Q76.66-4.5 79.26-8.15L79.26-8.15Q77.81-6.85 76.31-5.15L76.31-5.15Q76.11-4.95 75.81-4.95L75.81-4.95Q75.61-4.95 75.61-5.2 75.61-5.45 76.06-6.05L76.06-6.05 82.96-14.15Q84.26-15.65 85.61-15.65 86.96-15.65 86.96-14.75L86.96-14.75Q86.96-14.4 86.66-14.1L86.66-14.1Q84.66-12.25 81.63-7.95 78.61-3.65 78.61-1.6L78.61-1.6Q78.61-0.7 79.21-0.7L79.21-0.7Q81.31-0.7 85.31-4.85L85.31-4.85Q86.71-6.25 90.51-11.03 94.31-15.8 95.51-15.8L95.51-15.8Q97.31-15.8 97.31-14.4L97.31-14.4Q97.31-13.9 95.21-11.5L95.21-11.5Q92.36-8.05 90.86-5.88 89.36-3.7 89.36-2.35 89.36-1 90.11-1L90.11-1Q90.46-1 90.91-1.2L90.91-1.2Q94.36-2.7 99.16-8.2L99.16-8.2Q99.46-8.55 99.76-8.55 100.06-8.55 100.06-8.22 100.06-7.9 99.71-7.5L99.71-7.5Q97.56-5 94.66-2.48 91.76 0.05 90.56 0.3ZM145.37-20.4Q146.12-20.4 146.79-19.93 147.47-19.45 147.47-18.8 147.47-18.15 146.84-17.68 146.22-17.2 145.47-17.2 144.72-17.2 144.09-17.75 143.47-18.3 143.47-19L143.47-19Q143.47-20.4 145.37-20.4L145.37-20.4ZM136.32 0.55L136.32 0.55Q133.77 0.55 133.77-2.75L133.77-2.75Q133.77-5.45 136.72-10.23 139.67-15 141.47-15.05L141.47-15.05Q141.97-15.05 142.59-14.65 143.22-14.25 143.22-13.85L143.22-13.85Q142.97-13.5 142.62-13.08 142.27-12.65 141.87-12.15 141.47-11.65 140.77-10.73 140.07-9.8 139.42-8.95L139.42-8.95Q135.67-4.1 135.67-2.27 135.67-0.45 136.92-0.45L136.92-0.45Q137.97-0.45 139.77-1.6L139.77-1.6Q143.97-4.2 146.42-7.3L146.42-7.3Q147.32-8.45 147.64-8.45 147.97-8.45 147.97-8.05 147.97-7.65 146.82-6.45 145.67-5.25 144.99-4.55 144.32-3.85 144.07-3.63 143.82-3.4 143.14-2.78 142.47-2.15 142.12-1.9 141.77-1.65 141.12-1.15 140.47-0.65 139.97-0.43 139.47-0.2 138.82 0.1L138.82 0.1Q137.77 0.55 136.32 0.55ZM185.87-2.05L185.87-2.05Q183.87-0.65 183.02-0.65L183.02-0.65Q181.87-0.65 181.87-1.9L181.87-1.9Q181.87-2.35 182.17-3 182.47-3.65 182.77-3.65L182.77-3.65Q183.22-3.65 182.97-2.9L182.97-2.9Q182.82-2.15 183.42-2.15 184.02-2.15 184.87-2.75L184.87-2.75 182.97-4.2Q182.87-4.3 182.87-4.55 182.87-4.8 183.37-5.28 183.87-5.75 184.15-5.75 184.42-5.75 186.57-4.05L186.57-4.05Q192.77-11.05 195.67-13.25L195.67-13.25Q191.72-14.45 189.82-14.45L189.82-14.45Q189.27-14.45 188.77-14.38 188.27-14.3 187.7-13.78 187.12-13.25 187.12-12.6 187.12-11.95 187.67-11.53 188.22-11.1 188.22-10.85 188.22-10.6 187.85-10.6 187.47-10.6 186.62-11.6L186.62-11.6Q185.82-12.6 185.82-13.65L185.82-13.65Q185.82-15.4 188.37-15.95L188.37-15.95Q189.72-16.2 191.12-16.2 192.52-16.2 198.02-14.4L198.02-14.4Q198.72-14.8 199.52-14.8L199.52-14.8Q201.62-14.8 201.62-13.55L201.62-13.55Q201.62-13.05 200.97-12.63 200.32-12.2 199.42-12.2 198.52-12.2 197.77-12.55L197.77-12.55Q193.02-9.6 187.57-3.25L187.57-3.25 189.37-1.85Q191.52-0.45 194.37-0.45 197.22-0.45 198.57-1.35 199.92-2.25 199.92-3.65L199.92-3.65Q199.92-4.3 199.67-4.88 199.42-5.45 200.12-5.45L200.12-5.45Q200.37-5.45 200.62-4.88 200.87-4.3 200.87-3.5L200.87-3.5Q200.87-1.5 198.97-0.2 197.07 1.1 194.07 1.1L194.07 1.1Q190.77 1.1 188.62-0.15L188.62-0.15Q187.77-0.6 185.87-2.05Z" opacity="1" transform="matrix(1,0,0,1,0,0)" fill="#ffffff" class="slogan-text-1" data-fill-palette-color="secondary" id="text-1"></path></svg></g></svg></g></svg></g></svg></g></svg></g></svg></g></svg></g><path d="M252.506 41.215L252.506 0 5.306 0 5.306 247.2 252.506 247.2 252.506 205.985 245.076 205.985 245.076 239.769 12.737 239.769 12.737 7.431 245.076 7.431 245.076 41.215Z" fill="#ffffff" stroke="transparent" data-fill-palette-color="tertiary"></path></svg></g><defs></defs></svg><rect width="395.52" height="247.2" fill="none" stroke="none" visibility="hidden"></rect></g></svg></g></svg>